<svg width="36" height="36" viewBox="0 0 36 36" fill="none" xmlns="http://www.w3.org/2000/svg">
<rect x="0.5" y="0.5" width="35" height="35" rx="17.5" stroke="#C5A27A"/>
<path d="M12.4323 17.1099C12.1121 16.5477 11.498 16.1674 10.793 16.1674C9.75743 16.1674 8.91797 16.9879 8.91797 18C8.91797 19.0121 9.75743 19.8326 10.793 19.8326C11.498 19.8326 12.1121 19.4523 12.4323 18.8901M12.4323 17.1099C12.5824 17.3734 12.668 17.6769 12.668 18C12.668 18.3231 12.5824 18.6266 12.4323 18.8901M12.4323 17.1099L20.4036 11.7227M12.4323 18.8901L20.4036 24.2773M20.4036 24.2773C20.2535 24.5408 20.168 24.8444 20.168 25.1674C20.168 26.1795 21.0074 27 22.043 27C23.0785 27 23.918 26.1795 23.918 25.1674C23.918 24.1553 23.0785 23.3348 22.043 23.3348C21.338 23.3348 20.7238 23.7151 20.4036 24.2773ZM20.4036 11.7227C20.7238 12.2849 21.338 12.6652 22.043 12.6652C23.0785 12.6652 23.918 11.8447 23.918 10.8326C23.918 9.82047 23.0785 9 22.043 9C21.0074 9 20.168 9.82047 20.168 10.8326C20.168 11.1556 20.2535 11.4592 20.4036 11.7227Z" stroke="#C5A27A" stroke-width="1.5" stroke-linecap="round" stroke-linejoin="round"/>
</svg>
