<svg width="28" height="36" viewBox="0 0 28 36" fill="none" xmlns="http://www.w3.org/2000/svg">
<path fill-rule="evenodd" clip-rule="evenodd" d="M13.833 0.5C17.3692 0.5 20.7612 1.92881 23.2617 4.47266C25.7622 7.01648 27.167 10.4669 27.167 14.0645C27.167 22.8245 17.9741 31.8152 14.8545 34.6143C14.2651 35.1431 13.4019 35.1431 12.8125 34.6143C9.69305 31.8154 0.5 22.8246 0.5 14.0645C0.500037 10.4669 1.90482 7.01648 4.40527 4.47266C6.90566 1.92899 10.297 0.500088 13.833 0.5ZM13.833 8.83301C11.0718 8.83318 8.83318 11.0718 8.83301 13.833C8.83301 16.5943 11.0717 18.8328 13.833 18.833C16.5944 18.833 18.833 16.5944 18.833 13.833C18.8328 11.0717 16.5943 8.83301 13.833 8.83301Z" fill="#221714" stroke="white" stroke-linecap="round" stroke-linejoin="round"/>
</svg>
