<svg width="18" height="14" viewBox="0 0 18 14" fill="none" xmlns="http://www.w3.org/2000/svg">
<path fill-rule="evenodd" clip-rule="evenodd" d="M0.299805 12.2998H17.2998V13.2998H0.299805V12.2998Z" fill="white"/>
<path d="M17.2998 12C17.4655 12 17.5996 12.1341 17.5996 12.2998V13.2998L17.5938 13.3604C17.5657 13.497 17.4448 13.5996 17.2998 13.5996H0.299805C0.134119 13.5996 0 13.4655 0 13.2998V12.2998C0 12.1341 0.134119 12 0.299805 12H17.2998ZM0.599609 13H17V12.5996H0.599609V13Z" fill="white"/>
<path fill-rule="evenodd" clip-rule="evenodd" d="M0.299805 6.2998H17.2998V7.2998H0.299805V6.2998Z" fill="white"/>
<path d="M17.2998 6C17.4655 6 17.5996 6.13412 17.5996 6.2998V7.2998L17.5938 7.36035C17.5657 7.49702 17.4448 7.59961 17.2998 7.59961H0.299805C0.134119 7.59961 0 7.46549 0 7.2998V6.2998C0 6.13412 0.134119 6 0.299805 6H17.2998ZM0.599609 7H17V6.59961H0.599609V7Z" fill="white"/>
<path fill-rule="evenodd" clip-rule="evenodd" d="M0.299805 0.299805H17.2998V1.2998H0.299805V0.299805Z" fill="white"/>
<path d="M17.2998 0C17.4655 0 17.5996 0.134119 17.5996 0.299805V1.2998L17.5938 1.36035C17.5657 1.49702 17.4448 1.59961 17.2998 1.59961H0.299805C0.134119 1.59961 0 1.46549 0 1.2998V0.299805C0 0.134119 0.134119 0 0.299805 0H17.2998ZM0.599609 1H17V0.599609H0.599609V1Z" fill="white"/>
</svg>
