<svg width="27" height="35" viewBox="0 0 27 35" fill="none" xmlns="http://www.w3.org/2000/svg">
<path fill-rule="evenodd" clip-rule="evenodd" d="M13.333 0C16.8692 0 20.2612 1.42881 22.7617 3.97266C25.2622 6.51648 26.667 9.96695 26.667 13.5645C26.667 22.3245 17.4741 31.3152 14.3545 34.1143C13.7651 34.6431 12.9019 34.6431 12.3125 34.1143C9.19305 31.3154 0 22.3246 0 13.5645C3.66169e-05 9.96695 1.40482 6.51648 3.90527 3.97266C6.40566 1.42899 9.79699 8.77104e-05 13.333 0ZM13.333 8.33301C10.5718 8.33318 8.33318 10.5718 8.33301 13.333C8.33301 16.0943 10.5717 18.3328 13.333 18.333C16.0944 18.333 18.333 16.0944 18.333 13.333C18.3328 10.5717 16.0943 8.33301 13.333 8.33301Z" fill="#221714"/>
</svg>
