<svg width="60" height="60" viewBox="0 0 60 60" fill="none" xmlns="http://www.w3.org/2000/svg">
<circle cx="30" cy="25.5" r="6" fill="white"/>
<path d="M30.002 3.5C35.7122 3.5 41.1838 5.80749 45.2139 9.90723C49.243 14.0062 51.5019 19.561 51.502 25.3467C51.502 32.3988 47.8254 39.3765 43.7354 44.9951C39.6166 50.6532 34.9147 55.1539 32.5361 57.2881C31.0821 58.5927 28.9219 58.5927 27.4678 57.2881C25.0892 55.1539 20.3873 50.6532 16.2686 44.9951C12.1785 39.3765 8.50195 32.3988 8.50195 25.3467L8.50879 24.8047C8.64519 19.215 10.8869 13.8781 14.79 9.90723C18.8201 5.80749 24.2917 3.5 30.002 3.5ZM30.001 19C26.6873 19 24.001 21.6863 24.001 25C24.001 28.3137 26.6873 31 30.001 31C33.3147 31 36.001 28.3137 36.001 25C36.0009 21.6863 33.3146 19 30.001 19Z" fill="#221714" stroke="white" stroke-width="3" stroke-linecap="round" stroke-linejoin="round"/>
</svg>
