<svg width="32" height="32" viewBox="0 0 32 32" fill="none" xmlns="http://www.w3.org/2000/svg">
<rect width="32" height="32" rx="8" fill="#221714"/>
<path fill-rule="evenodd" clip-rule="evenodd" d="M6 15.2858C6 14.8913 6.27716 14.5715 6.61905 14.5715H23.9524C24.2943 14.5715 24.5714 14.8913 24.5714 15.2858C24.5714 15.6803 24.2943 16.0001 23.9524 16.0001H6.61905C6.27716 16.0001 6 15.6803 6 15.2858Z" fill="#EFEFEF"/>
<path fill-rule="evenodd" clip-rule="evenodd" d="M15.2857 6C15.6802 6 16 6.27716 16 6.61905L16 23.9524C16 24.2943 15.6802 24.5714 15.2857 24.5714C14.8912 24.5714 14.5714 24.2943 14.5714 23.9524L14.5714 6.61905C14.5714 6.27716 14.8912 6 15.2857 6Z" fill="#EFEFEF"/>
</svg>
