<svg width="36" height="36" viewBox="0 0 36 36" fill="none" xmlns="http://www.w3.org/2000/svg">
<rect x="0.5" y="0.5" width="35" height="35" rx="17.5" stroke="#C5A27A"/>
<path d="M17.9995 11.0005C22.4105 11.0005 25.9995 13.8657 25.9995 17.3882C25.9994 18.798 25.4445 20.0674 24.2847 21.3179C22.6065 23.2188 18.8535 25.534 17.9995 25.8882C17.1705 26.232 17.2662 25.6947 17.3042 25.4819L17.3071 25.4634L17.4214 24.7896C17.4484 24.5889 17.4759 24.2773 17.395 24.0786C17.305 23.8592 16.9509 23.745 16.6909 23.6899C12.8461 23.1911 9.99979 20.5454 9.99951 17.3882C9.99951 13.8658 13.5897 11.0007 17.9995 11.0005ZM19.6763 15.6851C19.6349 15.6851 19.5952 15.7022 19.5659 15.731C19.5367 15.7597 19.52 15.7987 19.52 15.8394V17.8755L17.9233 15.7544C17.9193 15.7492 17.9143 15.7444 17.9097 15.7397V15.7388L17.897 15.7261C17.8936 15.7229 17.89 15.7199 17.8862 15.7173H17.8853L17.8804 15.7134L17.8765 15.7114C17.8749 15.7103 17.8733 15.7093 17.8716 15.7085L17.8638 15.7036H17.8618L17.8589 15.7017L17.8491 15.6978L17.8452 15.6958C17.8419 15.6946 17.8379 15.6937 17.8345 15.6929H17.8325L17.8296 15.6919L17.8208 15.6899H17.8149L17.812 15.689H17.8081L17.8062 15.688H17.2319C17.1907 15.688 17.1508 15.7034 17.1216 15.7319C17.0924 15.7605 17.0759 15.7998 17.0757 15.8403V19.27C17.0757 19.3546 17.146 19.4224 17.2319 19.4224H17.7915C17.8785 19.4224 17.9487 19.3536 17.9487 19.27V17.2329L19.5493 19.3589C19.5599 19.3733 19.5734 19.386 19.5884 19.396L19.5894 19.397L19.5991 19.4028L19.6108 19.4087L19.6177 19.4116L19.6226 19.4136C19.6259 19.4147 19.6299 19.4156 19.6333 19.4165H19.6362C19.6492 19.4201 19.6628 19.4221 19.6763 19.4224H20.2358C20.3228 19.4224 20.393 19.3536 20.3931 19.27V15.8394C20.3931 15.7987 20.3763 15.7597 20.3472 15.731C20.3179 15.7022 20.2782 15.6851 20.2368 15.6851H19.6763ZM12.7202 15.6968C12.7013 15.7045 12.6839 15.7167 12.6694 15.731C12.6551 15.7451 12.644 15.7623 12.6362 15.7808C12.6285 15.7993 12.6235 15.8193 12.6235 15.8394V19.269C12.6236 19.3093 12.6405 19.348 12.6675 19.3745V19.3755L12.6694 19.3774L12.6724 19.3794C12.7013 19.4066 12.7398 19.4217 12.7798 19.4214H15.022C15.1079 19.4213 15.1772 19.3526 15.1772 19.2681V18.7173C15.1774 18.6971 15.1732 18.6764 15.1655 18.6577C15.1578 18.6392 15.1466 18.6221 15.1323 18.6079C15.1179 18.5936 15.1004 18.5825 15.0815 18.5747C15.0627 18.5669 15.0424 18.5631 15.022 18.563H13.4966V15.8394C13.4966 15.7989 13.4806 15.7597 13.4517 15.731C13.4227 15.7023 13.3833 15.6854 13.3423 15.6851H12.7798C12.7594 15.6851 12.7391 15.6891 12.7202 15.6968ZM15.813 15.6851C15.7716 15.6851 15.7319 15.7022 15.7026 15.731C15.6735 15.7597 15.6567 15.7987 15.6567 15.8394V19.269C15.6568 19.3536 15.727 19.4214 15.813 19.4214H16.3745C16.4605 19.4214 16.5298 19.3527 16.5298 19.269V15.8394C16.5298 15.7989 16.5138 15.7597 16.4849 15.731C16.4558 15.7022 16.4157 15.6853 16.3745 15.6851H15.813ZM21.0942 15.6851C21.0539 15.6851 21.0147 15.7013 20.9858 15.729H20.9849L20.9839 15.731L20.9819 15.7339C20.954 15.7621 20.9383 15.8 20.938 15.8394V19.269C20.938 19.3094 20.9549 19.348 20.9819 19.3745L20.9839 19.3774L20.9858 19.3794C21.0149 19.4067 21.0541 19.4216 21.0942 19.4214H23.3354C23.4214 19.4214 23.4907 19.3527 23.4907 19.2681V18.7173C23.4909 18.6971 23.4867 18.6764 23.479 18.6577C23.4713 18.6393 23.4601 18.6221 23.4458 18.6079C23.4316 18.5938 23.4146 18.5825 23.396 18.5747C23.3771 18.5669 23.3559 18.5631 23.3354 18.563H21.8101V17.9829H23.3345C23.4204 17.9829 23.4897 17.9142 23.4897 17.8296V17.2788C23.4899 17.2587 23.4857 17.2379 23.478 17.2192C23.4703 17.2008 23.4591 17.1836 23.4448 17.1694C23.4305 17.1552 23.4128 17.144 23.394 17.1362C23.3753 17.1285 23.3548 17.1246 23.3345 17.1245H21.8101V16.5444H23.3345C23.4204 16.5444 23.4897 16.4757 23.4897 16.3911H23.4907V15.8403C23.4909 15.8202 23.4867 15.7994 23.479 15.7808C23.4713 15.7623 23.4601 15.7452 23.4458 15.731C23.4316 15.7168 23.4146 15.7055 23.396 15.6978C23.3771 15.6899 23.3559 15.6852 23.3354 15.6851H21.0942Z" fill="#C5A27A"/>
</svg>
