<svg width="36" height="36" viewBox="0 0 36 36" fill="none" xmlns="http://www.w3.org/2000/svg">
<rect x="0.5" y="0.5" width="35" height="35" rx="17.5" stroke="#C5A27A"/>
<path fill-rule="evenodd" clip-rule="evenodd" d="M16.9413 16.1327C16.4107 16.2226 15.9416 16.5318 15.6417 16.7816C15.4917 16.9066 15.3613 17.0398 15.2068 17.1977C15.1543 17.2514 15.0989 17.308 15.039 17.3681L13.9678 18.4428L13.221 19.1896C12.369 20.0416 12.369 21.423 13.221 22.275C14.073 23.127 15.4544 23.127 16.3064 22.275L17.4505 21.1309C17.6946 20.8868 18.0903 20.8868 18.3344 21.1309C18.5784 21.375 18.5784 21.7707 18.3344 22.0148L17.1903 23.1589C15.8501 24.499 13.6773 24.499 12.3372 23.1589C10.997 21.8187 10.997 19.6459 12.3372 18.3057L13.0836 17.5593L14.1537 16.4857C14.1943 16.4449 14.2375 16.4007 14.2827 16.3544C14.4464 16.1869 14.6378 15.991 14.8415 15.8213C15.2144 15.5106 15.8869 15.0436 16.7324 14.9003C17.6223 14.7494 18.6307 14.9712 19.5777 15.9182C19.8217 16.1623 19.8217 16.558 19.5777 16.8021C19.3336 17.0462 18.9379 17.0462 18.6938 16.8021C18.0298 16.1381 17.4275 16.0503 16.9413 16.1327Z" fill="#C5A27A"/>
<path fill-rule="evenodd" clip-rule="evenodd" d="M18.5451 19.3653C19.0756 19.2753 19.5448 18.9662 19.8447 18.7163C19.9946 18.5914 20.125 18.4581 20.2795 18.3003C20.3321 18.2465 20.3875 18.1899 20.4474 18.1298L21.5186 17.0551L22.2653 16.3084C23.1173 15.4564 23.1173 14.075 22.2653 13.223C21.4133 12.371 20.0319 12.371 19.1799 13.223L18.0359 14.367C17.7918 14.6111 17.3961 14.6111 17.152 14.367C16.9079 14.123 16.9079 13.7272 17.152 13.4832L18.2961 12.3391C19.6362 10.9989 21.809 10.9989 23.1492 12.3391C24.4894 13.6793 24.4894 15.8521 23.1492 17.1923L22.4028 17.9387L21.3327 19.0123C21.292 19.0531 21.2489 19.0972 21.2037 19.1435C21.04 19.311 20.8486 19.5069 20.6448 19.6767C20.2719 19.9873 19.5995 20.4544 18.754 20.5977C17.864 20.7485 16.8557 20.5268 15.9087 19.5797C15.6646 19.3357 15.6646 18.9399 15.9087 18.6959C16.1528 18.4518 16.5485 18.4518 16.7926 18.6959C17.4565 19.3598 18.0589 19.4477 18.5451 19.3653Z" fill="#C5A27A"/>
</svg>
