<svg width="48" height="48" viewBox="0 0 48 48" fill="none" xmlns="http://www.w3.org/2000/svg">
<path d="M24 0C37.2548 0 48 10.7452 48 24C48 37.2548 37.2548 48 24 48C10.7452 48 0 37.2548 0 24C0 10.7452 10.7452 0 24 0ZM25.1973 9.89551C24.4872 9.3648 23.5128 9.36477 22.8027 9.89551L12.8027 17.373C12.2978 17.7506 12.0001 18.3441 12 18.9746V34C12 34.5522 12.4478 34.9999 13 35H18.9268C19.3696 35 19.7285 34.641 19.7285 34.1982V29.6494C19.7287 27.2906 21.6411 25.378 24 25.3779C26.3589 25.3779 28.2713 27.2906 28.2715 29.6494V34.1982C28.2715 34.641 28.6304 35 29.0732 35H35C35.5523 35 36 34.5523 36 34V18.9746C35.9999 18.3441 35.7022 17.7506 35.1973 17.373L25.1973 9.89551Z" fill="white"/>
</svg>
