<svg width="19" height="19" viewBox="0 0 19 19" fill="none" xmlns="http://www.w3.org/2000/svg">
<path fill-rule="evenodd" clip-rule="evenodd" d="M0.25 9.08333C0.25 4.20469 4.20469 0.25 9.08333 0.25C13.962 0.25 17.9167 4.20469 17.9167 9.08333C17.9167 10.1683 17.7211 11.2076 17.3632 12.1678C17.3615 12.1727 17.3597 12.1775 17.3578 12.1823C16.1027 15.5322 12.8715 17.9167 9.08333 17.9167C4.20469 17.9167 0.25 13.962 0.25 9.08333ZM16.5368 11.5001C16.7834 10.7389 16.9167 9.92669 16.9167 9.08333C16.9167 8.24004 16.7834 7.42788 16.5368 6.66675H12.7276C12.846 7.41868 12.9171 8.22671 12.9171 9.08341C12.9171 9.94012 12.846 10.7481 12.7276 11.5001H16.5368ZM12.5366 12.5001H16.1343C15.1265 14.576 13.2289 16.1399 10.9373 16.696C11.1454 16.3267 11.386 15.8587 11.6261 15.3024C11.9591 14.5311 12.2922 13.5876 12.5366 12.5001ZM11.7144 11.5001C11.8404 10.7525 11.9171 9.94406 11.9171 9.08341C11.9171 8.22276 11.8404 7.41431 11.7144 6.66675H6.45305C6.32704 7.41431 6.25039 8.22276 6.25039 9.08341C6.25039 9.94406 6.32704 10.7525 6.45305 11.5001H11.7144ZM6.65754 12.5001H11.5099C11.2869 13.4264 10.9975 14.2354 10.708 14.9061C10.4058 15.6062 10.1043 16.1536 9.88008 16.5235C9.78461 16.681 9.70328 16.8062 9.64205 16.897C9.4575 16.9101 9.27119 16.9167 9.08333 16.9167C8.89576 16.9167 8.70972 16.9101 8.52544 16.8971C8.4642 16.8062 8.38285 16.681 8.28736 16.5235C8.06318 16.1536 7.76167 15.6062 7.45945 14.9061C7.16995 14.2354 6.88058 13.4264 6.65754 12.5001ZM5.43985 11.5001C5.3214 10.7481 5.25039 9.94012 5.25039 9.08341C5.25039 8.22671 5.3214 7.41868 5.43985 6.66675H1.62983C1.38324 7.42788 1.25 8.24004 1.25 9.08333C1.25 9.92669 1.38326 10.7389 1.62988 11.5001H5.43985ZM2.0324 12.5001H5.63084C5.87527 13.5876 6.20837 14.5311 6.54133 15.3024C6.78153 15.8589 7.02211 16.3269 7.23028 16.6962C4.93825 16.1403 3.04032 14.5763 2.0324 12.5001ZM2.03232 5.66675H5.63084C5.87527 4.57921 6.20837 3.63578 6.54133 2.86443C6.78157 2.30788 7.0222 1.8398 7.23038 1.47043C4.93824 2.02633 3.04024 3.59042 2.03232 5.66675ZM8.52555 1.26955C8.4643 1.36045 8.38292 1.48569 8.28736 1.64335C8.06318 2.01326 7.76167 2.5606 7.45945 3.26074C7.16995 3.93141 6.88058 4.74045 6.65754 5.66675H11.5099C11.2869 4.74045 10.9975 3.93141 10.708 3.26074C10.4058 2.5606 10.1043 2.01326 9.88008 1.64335C9.78455 1.48572 9.70317 1.3605 9.64193 1.26961C9.45742 1.25661 9.27115 1.25 9.08333 1.25C8.89579 1.25 8.70979 1.25659 8.52555 1.26955ZM10.9372 1.47065C11.1453 1.83999 11.3859 2.30799 11.6261 2.86443C11.9591 3.63578 12.2922 4.57921 12.5366 5.66675H16.1343C15.1266 3.5907 13.2289 2.02674 10.9372 1.47065Z" fill="white"/>
<path d="M17.667 9.08301C17.6668 4.34259 13.8235 0.5 9.08301 0.5C4.34269 0.500176 0.500176 4.34269 0.5 9.08301C0.5 13.8235 4.34259 17.6668 9.08301 17.667C12.7636 17.667 15.9043 15.3502 17.124 12.0947L17.125 12.0908L17.1279 12.084L17.1289 12.0801C17.4764 11.1474 17.667 10.1376 17.667 9.08301ZM11.5098 12.25C11.5864 12.25 11.6587 12.2855 11.7061 12.3457C11.7534 12.4059 11.7709 12.4842 11.7529 12.5586C11.5262 13.5003 11.2319 14.3228 10.9375 15.0049C10.6301 15.7169 10.323 16.275 10.0938 16.6533C9.99615 16.8144 9.91291 16.9432 9.84961 17.0371C9.8066 17.1008 9.73588 17.1411 9.65918 17.1465C9.46894 17.1599 9.27658 17.167 9.08301 17.167C8.88968 17.167 8.69782 17.1599 8.50781 17.1465C8.4312 17.1411 8.36137 17.1007 8.31836 17.0371C8.25502 16.9431 8.17091 16.8145 8.07324 16.6533C7.84396 16.275 7.53685 15.7169 7.22949 15.0049C6.93512 14.3229 6.6408 13.5003 6.41406 12.5586C6.3962 12.4843 6.41374 12.4058 6.46094 12.3457C6.50828 12.2856 6.58074 12.2501 6.65723 12.25H11.5098ZM5.63086 12.25L5.71484 12.2646C5.79379 12.2928 5.85578 12.3598 5.875 12.4453C6.11554 13.5155 6.4429 14.4441 6.77051 15.2031C7.00684 15.7506 7.24397 16.2108 7.44824 16.5732C7.49707 16.6599 7.48958 16.7673 7.42969 16.8467C7.36961 16.9261 7.26765 16.9629 7.1709 16.9395C4.80532 16.3656 2.84752 14.7514 1.80762 12.6094C1.77001 12.5319 1.77461 12.4402 1.82031 12.3672C1.86599 12.2943 1.9462 12.2501 2.03223 12.25H5.63086ZM16.1338 12.25C16.2198 12.25 16.3 12.2944 16.3457 12.3672C16.3914 12.4402 16.397 12.5319 16.3594 12.6094C15.3196 14.7513 13.3615 16.3645 10.9961 16.9385C10.8994 16.9619 10.7984 16.926 10.7383 16.8467C10.6782 16.7673 10.6708 16.66 10.7197 16.5732C10.924 16.2108 11.1602 15.7505 11.3965 15.2031C11.7241 14.4441 12.0524 13.5156 12.293 12.4453L12.3252 12.3662C12.3699 12.2956 12.4487 12.2502 12.5361 12.25H16.1338ZM6.97852 12.75C7.18514 13.5327 7.4375 14.2229 7.68945 14.8066C7.98644 15.4947 8.2819 16.032 8.50098 16.3936C8.56203 16.4943 8.61872 16.5806 8.66602 16.6533C8.80408 16.6608 8.94303 16.667 9.08301 16.667C9.22287 16.667 9.36204 16.6608 9.5 16.6533C9.5474 16.5805 9.60478 16.4946 9.66602 16.3936C9.88511 16.032 10.1815 15.4948 10.4785 14.8066C10.7304 14.223 10.9819 13.5326 11.1885 12.75H6.97852ZM2.44434 12.75C3.36539 14.4141 4.89443 15.6921 6.73047 16.291C6.59525 16.0257 6.45279 15.7286 6.31152 15.4014C5.9934 14.6644 5.67687 13.7725 5.43359 12.75H2.44434ZM12.7344 12.75C12.4911 13.7726 12.1736 14.6643 11.8555 15.4014C11.7141 15.7289 11.5709 16.0255 11.4355 16.291C13.2719 15.6922 14.8015 14.4143 15.7227 12.75H12.7344ZM5 9.08301C5.00002 8.32126 5.05886 7.59786 5.15332 6.91699H1.81543C1.61123 7.60316 1.50003 8.32984 1.5 9.08301C1.5 9.8364 1.61114 10.5636 1.81543 11.25H5.15332C5.05883 10.569 5 9.84496 5 9.08301ZM11.667 9.08301C11.667 8.31671 11.6028 7.59284 11.499 6.91699H6.66797C6.56421 7.59282 6.50002 8.31673 6.5 9.08301C6.5 9.84949 6.56418 10.574 6.66797 11.25H11.499C11.6028 10.574 11.667 9.84952 11.667 9.08301ZM16.667 9.08301C16.667 8.32987 16.5557 7.60313 16.3516 6.91699H13.0146C13.1091 7.59784 13.167 8.32129 13.167 9.08301C13.167 9.84494 13.1091 10.569 13.0146 11.25H16.3506C16.5549 10.5636 16.667 9.83646 16.667 9.08301ZM7.17188 1.22754C7.26844 1.20428 7.36967 1.24017 7.42969 1.31934C7.48968 1.39863 7.49692 1.5061 7.44824 1.59277C7.24393 1.95527 7.0069 2.41622 6.77051 2.96387C6.44291 3.72286 6.11553 4.65149 5.875 5.72168C5.84934 5.83575 5.74778 5.91698 5.63086 5.91699H2.03223C1.94623 5.91696 1.86602 5.87264 1.82031 5.7998C1.77461 5.72681 1.77001 5.63509 1.80762 5.55762C2.84756 3.41534 4.80599 1.80133 7.17188 1.22754ZM9.37305 1.00488L9.65918 1.02051L9.71582 1.03027C9.76983 1.04695 9.8174 1.08208 9.84961 1.12988C9.91293 1.22386 9.99611 1.35257 10.0938 1.51367C10.323 1.89199 10.6301 2.45006 10.9375 3.16211C11.2319 3.84413 11.5262 4.66671 11.7529 5.6084C11.7708 5.68283 11.7534 5.76116 11.7061 5.82129C11.6587 5.88145 11.5864 5.91699 11.5098 5.91699H6.65723C6.58074 5.9169 6.50828 5.88138 6.46094 5.82129C6.41371 5.76121 6.39625 5.68271 6.41406 5.6084C6.64079 4.66679 6.93514 3.8441 7.22949 3.16211C7.53683 2.4501 7.84396 1.89199 8.07324 1.51367C8.17099 1.35239 8.255 1.22391 8.31836 1.12988L8.35547 1.08691C8.39685 1.04838 8.45029 1.02461 8.50781 1.02051C8.69778 1.00714 8.88972 1.00001 9.08301 1C9.17998 1 9.27689 1.00149 9.37305 1.00488ZM10.9961 1.22754C13.3616 1.80153 15.3196 3.4156 16.3594 5.55762C16.3969 5.63508 16.3924 5.72684 16.3467 5.7998C16.301 5.87264 16.2207 5.91685 16.1348 5.91699H12.5361C12.4194 5.91677 12.3186 5.83554 12.293 5.72168C12.0524 4.65141 11.7241 3.72289 11.3965 2.96387C11.1602 2.41654 10.924 1.95615 10.7197 1.59375C10.6708 1.50701 10.6782 1.39873 10.7383 1.31934C10.7984 1.24031 10.8996 1.20415 10.9961 1.22754ZM11.4355 1.875C11.571 2.14065 11.714 2.43786 11.8555 2.76562C12.1736 3.50271 12.4911 4.3944 12.7344 5.41699H15.7227C14.8015 3.75247 13.2721 2.47387 11.4355 1.875ZM9.08301 1.5C8.94306 1.50001 8.80405 1.50424 8.66602 1.51172C8.61857 1.58459 8.56232 1.67125 8.50098 1.77246C8.28194 2.13388 7.98645 2.6714 7.68945 3.35938C7.43747 3.94314 7.18517 4.63417 6.97852 5.41699H11.1885C10.9818 4.63422 10.7305 3.94311 10.4785 3.35938C10.1815 2.67131 9.88508 2.13391 9.66602 1.77246C9.60454 1.67104 9.54751 1.58467 9.5 1.51172C9.36207 1.50425 9.22285 1.5 9.08301 1.5ZM6.73047 1.87402C4.89413 2.47292 3.36546 3.75263 2.44434 5.41699H5.43359C5.67686 4.39453 5.9934 3.50265 6.31152 2.76562C6.45304 2.43778 6.59503 2.13972 6.73047 1.87402ZM5.5 9.08301C5.5 9.92577 5.56999 10.7211 5.68652 11.4609C5.69788 11.533 5.67724 11.6066 5.62988 11.6621C5.58239 11.7177 5.51255 11.75 5.43945 11.75H1.62988C1.5215 11.75 1.42501 11.6803 1.3916 11.5771C1.13704 10.7914 1 9.9528 1 9.08301C1.00003 8.21344 1.13714 7.37539 1.3916 6.58984L1.42773 6.51953C1.4739 6.45618 1.54844 6.41699 1.62988 6.41699H5.43945C5.51245 6.41699 5.58239 6.44848 5.62988 6.50391C5.67738 6.55947 5.6979 6.63385 5.68652 6.70605C5.57003 7.44571 5.50002 8.24046 5.5 9.08301ZM12.167 9.08301C12.167 9.95853 12.0891 10.7817 11.9609 11.542C11.9405 11.662 11.8366 11.7498 11.7148 11.75H6.45312C6.33118 11.75 6.22645 11.6622 6.20605 11.542C6.07788 10.7817 6 9.95853 6 9.08301C6.00002 8.20764 6.0779 7.38521 6.20605 6.625C6.22638 6.50472 6.33113 6.41699 6.45312 6.41699H11.7148L11.7588 6.4209C11.8609 6.43927 11.9431 6.51967 11.9609 6.625C12.0891 7.38521 12.167 8.20763 12.167 9.08301ZM17.167 9.08301C17.167 9.95284 17.029 10.7914 16.7744 11.5771C16.741 11.6801 16.6453 11.7499 16.5371 11.75H12.7275C12.6545 11.75 12.5846 11.7177 12.5371 11.6621C12.4899 11.6066 12.4691 11.5329 12.4805 11.4609C12.597 10.7211 12.667 9.92579 12.667 9.08301C12.667 8.24043 12.597 7.44573 12.4805 6.70605C12.4691 6.63385 12.4896 6.55947 12.5371 6.50391C12.5846 6.44836 12.6545 6.41701 12.7275 6.41699H16.5371L16.6152 6.42969C16.6894 6.45422 16.7494 6.51262 16.7744 6.58984C17.0289 7.37544 17.167 8.21337 17.167 9.08301ZM18.167 9.08301C18.167 10.1981 17.9657 11.2672 17.5977 12.2549C17.5954 12.2611 17.5932 12.2673 17.5908 12.2734C16.2994 15.716 12.9776 18.167 9.08301 18.167C4.06644 18.1668 0 14.0996 0 9.08301C0.000175738 4.06655 4.06655 0.000175734 9.08301 0C14.0996 0 18.1668 4.06644 18.167 9.08301Z" fill="white"/>
</svg>
