<svg width="40" height="40" viewBox="0 0 40 40" fill="none" xmlns="http://www.w3.org/2000/svg">
<path fill-rule="evenodd" clip-rule="evenodd" d="M10.5549 7.10679C12.6105 5.73327 15.0273 5.00016 17.4995 5.00016C20.8147 5.00037 23.994 6.3174 26.3381 8.66154C28.6823 11.0057 29.9993 14.185 29.9995 17.5001C29.9995 19.9724 29.2664 22.3892 27.8929 24.4448C26.5194 26.5004 24.5671 28.1026 22.2831 29.0486C19.999 29.9947 17.4857 30.2423 15.0609 29.76C12.6361 29.2777 10.4088 28.0871 8.66069 26.339C6.91253 24.5908 5.72203 22.3635 5.23971 19.9388C4.75739 17.514 5.00494 15.0007 5.95103 12.7166C6.89713 10.4325 8.49928 8.48031 10.5549 7.10679ZM17.4995 6.66683C20.3726 6.66703 23.128 7.80845 25.1596 9.84006C27.1912 11.8717 28.3327 14.627 28.3329 17.5002M17.4995 6.66683C15.3569 6.66684 13.2624 7.3022 11.4808 8.49258C9.69932 9.68296 8.31078 11.3749 7.49083 13.3544C6.67088 15.334 6.45635 17.5122 6.87435 19.6136C7.29236 21.7151 8.32413 23.6454 9.8392 25.1605C11.3543 26.6755 13.2846 27.7073 15.386 28.1253C17.4875 28.5433 19.6657 28.3288 21.6453 27.5089C23.6248 26.6889 25.3167 25.3004 26.5071 23.5188C27.6975 21.7373 28.3328 19.6428 28.3329 17.5002" fill="#221714"/>
<path d="M29.4168 17.5002C29.4166 14.3397 28.1604 11.3088 25.9256 9.07406C23.8286 6.97701 21.0305 5.74025 18.0822 5.59587V5.82699H16.9168V5.59749C14.7644 5.70284 12.6763 6.39003 10.8784 7.59131C8.91892 8.90065 7.39235 10.7623 6.49041 12.9396C5.58854 15.1169 5.35205 17.513 5.81169 19.8244C6.2715 22.136 7.40684 24.2597 9.07341 25.9263C10.74 27.5928 12.8637 28.7282 15.1753 29.188C17.4867 29.6476 19.8828 29.4111 22.0601 28.5093C24.2373 27.6073 26.099 26.0808 27.4084 24.1213C28.7178 22.1616 29.4168 19.857 29.4168 17.5002ZM27.7372 16.9923C27.6114 14.4588 26.5494 12.0546 24.7472 10.2524C22.9451 8.45026 20.5409 7.38828 18.0073 7.26253L17.4995 7.24951C15.4723 7.24952 13.4901 7.85176 11.8045 8.97803C10.1192 10.1043 8.80585 11.7049 8.03012 13.5776C7.25432 15.4506 7.05031 17.5122 7.44581 19.5005C7.84137 21.4886 8.81843 23.3145 10.2518 24.7479C11.6852 26.1812 13.5111 27.1583 15.4992 27.5539C17.4875 27.9494 19.5491 27.7454 21.422 26.9696C23.2948 26.1938 24.8954 24.8805 26.0217 23.1951C27.1479 21.5096 27.7502 19.5274 27.7502 17.5002L27.7372 16.9923ZM28.9155 17.5002C28.9155 19.7581 28.2462 21.9655 26.9917 23.8429C25.7372 25.7203 23.9541 27.183 21.868 28.047C19.7822 28.911 17.4873 29.1384 15.273 28.6981C13.0583 28.2576 11.0233 27.1697 9.4266 25.5731C7.82995 23.9764 6.74212 21.9413 6.3016 19.7267C5.86132 17.5124 6.0887 15.2175 6.95265 13.1317C7.81671 11.0456 9.27939 9.26245 11.1567 8.00797C13.0342 6.7535 15.2415 6.08416 17.4995 6.08415C20.5273 6.08435 23.4314 7.28626 25.5724 9.42725C27.7134 11.5682 28.9153 14.4723 28.9155 17.5002ZM30.5822 17.5002C30.5822 20.0877 29.816 22.6175 28.3784 24.769C26.9408 26.9206 24.8967 28.5981 22.506 29.5884C20.1156 30.5784 17.4851 30.8369 14.9474 30.3322C12.4095 29.8274 10.078 28.5812 8.24822 26.7515C6.41848 24.9217 5.17231 22.5902 4.66749 20.0522C4.1628 17.5146 4.42128 14.8841 5.4113 12.4937C6.40155 10.103 8.0791 8.05887 10.2306 6.62126C12.3822 5.18369 14.9119 4.41748 17.4995 4.41748C20.9693 4.4177 24.2973 5.79532 26.7508 8.24886C29.2044 10.7024 30.582 14.0303 30.5822 17.5002Z" fill="#221714"/>
<path fill-rule="evenodd" clip-rule="evenodd" d="M25.2436 25.2442C25.569 24.9188 26.0967 24.9188 26.4221 25.2442L34.7554 33.5776C35.0809 33.903 35.0809 34.4306 34.7554 34.7561C34.43 35.0815 33.9024 35.0815 33.5769 34.7561L25.2436 26.4228C24.9182 26.0973 24.9182 25.5697 25.2436 25.2442Z" fill="#221714"/>
<path d="M24.8319 24.8325C25.3851 24.2793 26.2806 24.2793 26.8338 24.8325L35.1672 33.1658C35.7204 33.7191 35.7204 34.6146 35.1672 35.1678C34.6139 35.721 33.7184 35.721 33.1652 35.1678L24.8319 26.8345C24.2786 26.2812 24.2786 25.3858 24.8319 24.8325ZM26.0103 25.6561C25.9126 25.5585 25.7531 25.5585 25.6554 25.6561C25.5578 25.7537 25.5578 25.9133 25.6554 26.0109L33.9888 34.3442C34.0864 34.4419 34.246 34.4419 34.3436 34.3442C34.4412 34.2466 34.4412 34.087 34.3436 33.9894L26.0103 25.6561Z" fill="#221714"/>
</svg>
