<svg width="19" height="19" viewBox="0 0 19 19" fill="none" xmlns="http://www.w3.org/2000/svg">
<path fill-rule="evenodd" clip-rule="evenodd" d="M3.68333 1.61359C4.9167 0.789477 6.36675 0.349609 7.85011 0.349609C9.83918 0.349736 11.7468 1.13995 13.1533 2.54644C14.5598 3.95293 15.35 5.8605 15.3501 7.84958C15.3501 9.33294 14.9102 10.783 14.0861 12.0164C13.262 13.2498 12.0907 14.211 10.7202 14.7787C9.34978 15.3464 7.84179 15.4949 6.38693 15.2055C4.93207 14.9161 3.5957 14.2018 2.54681 13.1529C1.49791 12.104 0.783606 10.7676 0.494217 9.31279C0.204828 7.85793 0.353352 6.34993 0.92101 4.97948C1.48867 3.60904 2.44996 2.4377 3.68333 1.61359ZM7.85011 1.34961C9.57398 1.34973 11.2272 2.03458 12.4462 3.25355C13.6651 4.47251 14.35 6.12574 14.3501 7.84961M7.85011 1.34961C6.56454 1.34962 5.30781 1.73083 4.2389 2.44506C3.16998 3.15929 2.33686 4.17445 1.84489 5.36217C1.35292 6.54989 1.2242 7.85682 1.475 9.11769C1.72581 10.3786 2.34487 11.5368 3.25391 12.4458C4.16295 13.3548 5.32114 13.9739 6.58202 14.2247C7.8429 14.4755 9.14983 14.3468 10.3375 13.8548C11.5253 13.3629 12.5404 12.5297 13.2547 11.4608C13.9689 10.3919 14.3501 9.13518 14.3501 7.84961" fill="white"/>
<path d="M15.0005 7.84961C15.0004 5.95335 14.2466 4.1348 12.9058 2.79395C11.6475 1.53572 9.96871 0.793663 8.19971 0.707031V0.845703H7.50049V0.708008C6.20905 0.771217 4.95616 1.18353 3.87745 1.9043C2.70174 2.6899 1.7858 3.80691 1.24463 5.11328C0.703515 6.41966 0.561621 7.85729 0.837408 9.24414C1.11329 10.6311 1.79449 11.9053 2.79444 12.9053C3.79438 13.9052 5.06861 14.5864 6.45557 14.8623C7.84242 15.1381 9.28005 14.9962 10.5864 14.4551C11.8928 13.9139 13.0098 12.998 13.7954 11.8223C14.5811 10.6465 15.0005 9.26373 15.0005 7.84961ZM13.9927 7.54492C13.9172 6.02481 13.28 4.58228 12.1987 3.50098C11.1174 2.41967 9.6749 1.78248 8.15479 1.70703L7.8501 1.69922C6.63376 1.69923 5.44446 2.06056 4.43311 2.73633C3.42191 3.41207 2.6339 4.37247 2.16846 5.49609C1.70298 6.61986 1.58058 7.85682 1.81788 9.0498C2.05521 10.2427 2.64145 11.3382 3.50147 12.1982C4.36149 13.0583 5.45704 13.6445 6.64991 13.8818C7.84289 14.1191 9.07985 13.9967 10.2036 13.5312C11.3272 13.0658 12.2876 12.2778 12.9634 11.2666C13.6391 10.2552 14.0005 9.06596 14.0005 7.84961L13.9927 7.54492ZM14.6997 7.84961C14.6997 9.2044 14.2981 10.5288 13.5454 11.6553C12.7927 12.7817 11.7228 13.6593 10.4712 14.1777C9.2197 14.6961 7.84275 14.8325 6.51417 14.5684C5.1854 14.3041 3.96434 13.6513 3.00635 12.6934C2.04836 11.7354 1.39566 10.5143 1.13135 9.18555C0.86718 7.85696 1.00361 6.48001 1.52198 5.22852C2.04042 3.97689 2.91802 2.90698 4.04444 2.1543C5.17091 1.40161 6.49531 1.00001 7.8501 1C9.66679 1.00012 11.4093 1.72127 12.6939 3.00586C13.9784 4.29045 14.6996 6.03292 14.6997 7.84961ZM15.6997 7.84961C15.6997 9.40215 15.24 10.92 14.3774 12.2109C13.5149 13.5019 12.2884 14.5084 10.854 15.1025C9.41976 15.6966 7.84143 15.8516 6.31885 15.5488C4.7961 15.2459 3.39716 14.4982 2.29932 13.4004C1.20148 12.3025 0.453778 10.9036 0.150884 9.38086C-0.151932 7.85828 0.0031572 6.27995 0.597173 4.8457C1.19132 3.4113 2.19785 2.18483 3.48877 1.32227C4.77969 0.459727 6.29755 5.65613e-07 7.8501 0C9.932 0.000132508 11.9288 0.826706 13.4009 2.29883C14.873 3.77095 15.6996 5.76772 15.6997 7.84961Z" fill="white"/>
<path fill-rule="evenodd" clip-rule="evenodd" d="M12.4965 12.4961C12.6918 12.3008 13.0084 12.3008 13.2037 12.4961L18.2037 17.4961C18.3989 17.6913 18.3989 18.0079 18.2037 18.2032C18.0084 18.3984 17.6918 18.3984 17.4965 18.2032L12.4965 13.2032C12.3013 13.0079 12.3013 12.6913 12.4965 12.4961Z" fill="white"/>
<path d="M12.2495 12.249C12.5815 11.9171 13.1187 11.9171 13.4507 12.249L18.4507 17.249C18.7826 17.581 18.7826 18.1182 18.4507 18.4502C18.1187 18.7821 17.5815 18.7821 17.2495 18.4502L12.2495 13.4502C11.9176 13.1182 11.9176 12.581 12.2495 12.249ZM12.9565 12.7432C12.898 12.6846 12.8022 12.6846 12.7437 12.7432C12.6851 12.8017 12.6851 12.8975 12.7437 12.9561L17.7437 17.9561C17.8022 18.0146 17.898 18.0146 17.9565 17.9561C18.0151 17.8975 18.0151 17.8017 17.9565 17.7432L12.9565 12.7432Z" fill="white"/>
</svg>
