<svg width="119" height="32" viewBox="0 0 119 32" fill="none" xmlns="http://www.w3.org/2000/svg">
<path d="M116.9 25.125H116.489V25.8424H114.394V26.2051V26.8338H114.813V26.2051H118.577V26.8338H118.996V26.2051V25.8424H116.9V25.125Z" fill="white"/>
<path d="M112.644 26.3569H111.677V26.7761H112.644V26.3569Z" fill="white"/>
<path d="M110.55 27.1878V31.9756H112.766L113.323 30.5489H113.46V31.9756H113.879V30.1862H113.016L112.46 31.6129H110.969V29.5736H113.879V27.1797H110.55V27.1878ZM113.468 29.219H110.977V28.5661H113.468V29.219ZM113.468 28.2034H110.977V27.5505H113.468V28.2034Z" fill="white"/>
<path d="M114.813 27.1875H114.394V31.9754H114.813V31.6771H118.367V31.9754H118.787V29.5814H114.813V28.9285H118.787V27.1875H114.813ZM118.367 29.9442V31.3225H114.813V29.9442H118.367ZM118.367 28.5658H114.813V27.5502H118.367V28.5658Z" fill="white"/>
<path d="M113.217 25.5757H113.137H112.766H111.452H111.186H111.009L110.662 26.4704H110.34V26.8331H110.969V26.825L111.315 25.9384H112.911L113.258 26.825V26.8331V26.825H113.878V26.4704H113.556L113.217 25.5757Z" fill="white"/>
<path d="M103.601 26.2535L104.037 25.125H103.593L102.811 27.132H102.4V27.4948H103.102L103.118 27.5028V27.4948H103.126V27.4867L103.464 26.6162H107.124V31.6136H106.366V31.9764H107.124H107.543V31.6136V26.6162V26.2535H107.124H103.601Z" fill="white"/>
<path d="M102.375 28.7844V28.3975L101.384 28.7603V26.6162H102.375V26.2535H101.384V25.125H100.965V26.2535H100.256L100.513 25.5764H100.127L99.4979 27.2127H99.3125V27.4948H99.385H99.78L100.119 26.6162H100.965V28.9134L99.6268 29.397V29.7839L100.965 29.3003V31.9764H101.384V29.1472L102.375 28.7844Z" fill="white"/>
<path d="M104.576 31.9677L106.519 26.9702H106.075L104.27 31.613H103.851V31.9757H104.552L104.576 31.9838V31.9757V31.9677Z" fill="white"/>
<path d="M102.778 31.9677L104.721 26.9702H104.269L102.464 31.613H102.053V31.9757H102.746L102.77 31.9838V31.9757H102.778V31.9677Z" fill="white"/>
<path d="M95.4597 29.0254H95.0405V29.5413H90.9619V29.904H95.0405V31.6128H93.8637V31.9755H95.0405H95.4597V29.904H96.9266V29.5413H95.4597V29.0254Z" fill="white"/>
<path d="M96.0644 25.1252H95.6694L95.9435 25.8426H94.146V25.1252H93.7269V25.8426H90.9541V26.2053H93.7269V26.6164H91.5345V29.091H91.9536V28.6557H93.7349V29.0184H94.1541V28.6557H95.9274V29.0184H96.3465V26.6084H94.1541V26.1973H96.9269V25.8346H96.3465L96.0725 25.1172L96.0644 25.1252ZM93.7349 26.9791V27.4628H91.9536V26.9791H93.7349ZM91.9536 28.301V27.8174H93.7349V28.301H91.9536ZM94.1541 28.301V27.8174H95.9274V28.301H94.1541ZM95.9274 26.9791V27.4628H94.1541V26.9791H95.9274Z" fill="white"/>
<path d="M93.8634 30.879L92.1143 30.2422V30.6372L93.8634 31.2739V30.879Z" fill="white"/>
<path d="M90.9612 27.6237V27.261H89.728V25.125H89.3169V27.261H88.2852V27.6237H89.3169V31.9764H89.728V27.6237H90.9612Z" fill="white"/>
<path d="M83.5798 25.125H83.1607V25.5764H80.9844V25.9391H83.1607V26.4227H81.2585V26.7774H83.1607V27.261H80.9844V27.6237H85.7562V27.261H83.5798V26.7774H85.474V26.4227H83.5798V25.9391H85.7562V25.5764H83.5798V25.125Z" fill="white"/>
<path d="M79.9266 31.6129H79.3543V29.1061H80.515V28.7434H79.3543V27.6794H80.515V25.5757H77.8389V27.6794H78.9352V31.6129H78.2742V28.7434H77.8551V31.6129H77.2021V31.9756H80.0717H80.1684L80.6117 30.8311H80.2168L79.9185 31.6129H79.9266ZM78.2581 25.9384H80.0959V27.3167H78.2581V25.9384Z" fill="white"/>
<path d="M84.0068 31.3559L85.756 31.9927V31.5977L84.0068 30.9609V31.3559Z" fill="white"/>
<path d="M80.9844 31.9927L82.7335 31.3559V30.9609L80.9844 31.5977V31.9927Z" fill="white"/>
<path d="M85.3754 30.5408V27.9453H81.3613V30.8309H85.3754V30.5408ZM81.7724 28.308H84.9563V28.7917H81.7724V28.308ZM81.7724 29.1463H84.9563V29.6299H81.7724V29.1463ZM81.7724 29.9927H84.9563V30.4763H81.7724V29.9927Z" fill="white"/>
<path d="M70.7392 25.125H70.3201V26.6323H66.2012V26.995H70.3201V28.7441H67.7971V31.9764H68.2163V31.6781H72.851V31.9764H73.2702V28.7441H70.7473V26.995H74.8661V26.6323H70.7473V25.125H70.7392ZM72.851 31.3154H68.2163V29.1068H72.851V31.3154Z" fill="white"/>
<path d="M59.2916 31.6136H58.6064V31.9764H59.2916H59.7107V25.125H59.2916V31.6136Z" fill="white"/>
<path d="M57.5023 26.6304H55.1729V26.9931H57.3572L55.9789 30.5477H55.1729V30.9104H56.2852L57.9456 26.6304H57.5023Z" fill="white"/>
<path d="M61.5012 26.6304H61.0498L62.7183 30.9104H63.8226V30.5477H63.0246L61.6382 26.9931H63.8226V26.6304H61.5012Z" fill="white"/>
<path d="M49.8453 28.2202H49.4342V29.7436L46.4922 31.4444V31.8716L49.6358 30.0419H49.6438L52.7874 31.8716V31.4444L49.8453 29.7436V28.2202Z" fill="white"/>
<path d="M49.8453 25.125H49.4342V26.4872L46.4922 28.196V28.6152L49.6358 26.7855H49.6438L52.7874 28.6152V28.196L49.8453 26.4872V25.125Z" fill="white"/>
<path d="M44.2266 31.9764H44.6215L45.887 28.6797H45.492L44.2266 31.9764Z" fill="white"/>
<path d="M44.1387 25.52L45.8878 26.1567V25.7618L44.1387 25.125V25.52Z" fill="white"/>
<path d="M44.1387 27.2673L45.8878 27.904V27.5091L44.1387 26.8804V27.2673Z" fill="white"/>
<path d="M46.9756 25.9228L48.757 26.213V25.8502L46.9756 25.5601V25.9228Z" fill="white"/>
<path d="M46.9756 28.9121V29.2748L48.757 29.5731V29.2103L46.9756 28.9121Z" fill="white"/>
<path d="M50.5225 26.213L52.3038 25.9228V25.5601L50.5225 25.8502V26.213Z" fill="white"/>
<path d="M50.5225 29.1136V29.4683L52.3038 29.2748V28.9121L50.5225 29.1136Z" fill="white"/>
<path d="M40.1493 26.8008H39.6979L37.8199 31.637H33.1045V31.9997H41.7534V31.637H38.2632L40.1493 26.8008Z" fill="white"/>
<path d="M36.3689 31.0567H36.8123L35.1599 26.8008H34.7085L36.3689 31.0567Z" fill="white"/>
<path d="M37.635 26.2207H41.4234V25.858H37.635V25.1406H37.224V25.858H33.4355V26.2207H37.224H37.635Z" fill="white"/>
<path d="M26.6083 25.1406H26.1892V26.1562H22.0703V26.519H26.1892V27.6232H23.3358H22.9167V30.5895H23.3358V27.9859H26.1892V31.992H26.6083V27.9859H29.4617V30.2267H28.7766V30.5895H29.4617H29.8809V27.6232H29.4617H26.6083V26.519H30.7272V26.1562H26.6083V25.1406Z" fill="white"/>
<path d="M16.6613 25.1406H16.2422V31.992H16.6613H19.2729H19.6921V31.6293V30.9441H19.2729V31.6293H16.6613V28.2358L19.6921 26.4787V26.0595L16.6613 27.8167V25.1406Z" fill="white"/>
<path d="M14.2181 27.2605H11.0422V27.6232H14.2181V29.5497L11.0342 31.3955V31.8146L14.2181 29.9688V31.992H14.6292V27.6232V27.2605V25.1406H14.2181V27.2605Z" fill="white"/>
<path d="M0.0878906 31.9926H0.482844L1.46622 29.4375H1.07127L0.0878906 31.9926Z" fill="white"/>
<path d="M2.79785 29.4375L3.77318 31.9926H4.16814L3.19283 29.4375H2.79785Z" fill="white"/>
<path d="M8.2374 26.2207L8.37444 25.858L8.65656 25.1406H8.21322L7.93112 25.858H5.26309H4.81171V26.2207V30.9119L4.52962 31.6373L4.39258 32H4.83589L4.981 31.6373L5.26309 30.9119V27.9376H7.39913V31.992H7.81827V27.9376H8.65656V27.5749H5.26309V26.2207H7.79409H7.78602H8.2374Z" fill="white"/>
<path d="M2.31311 25.1406H1.89395V25.858H0.0078125V26.2207H1.89395H2.31311H4.19925V25.858H2.31311V25.1406Z" fill="white"/>
<path d="M3.03855 26.4937H2.61939V27.5737H1.34585V26.4937H0.926714V27.5737H0.0078125V27.9365H1.87784V28.6941H0.0078125V29.0569H1.87784V31.9586H2.32922V29.0569H4.19925V28.6941H2.32922V27.9365H4.19925V27.5737H3.03855V26.4937Z" fill="white"/>
<path d="M22.9164 9.02734H13.8887V19.5381H22.9164V9.02734Z" fill="white"/>
<path fill-rule="evenodd" clip-rule="evenodd" d="M36.8201 0.291016V9.03657H22.9239C22.9239 6.51366 20.8927 4.52273 18.4101 4.52273C15.9275 4.52273 13.8962 6.51366 13.8962 9.03657H0V0.291016H36.812H36.8201Z" fill="white"/>
<path fill-rule="evenodd" clip-rule="evenodd" d="M77.5503 0.291016V19.5473H63.6541C63.6541 18.3302 63.6541 17.105 63.6541 15.8879C63.6541 13.3973 61.631 11.3741 59.1403 11.3741C56.6496 11.3741 54.6264 13.3973 54.6264 15.8879V19.5473H40.7383V0.291016H54.6264V4.52273H63.6541V0.291016H77.5503Z" fill="white"/>
<path fill-rule="evenodd" clip-rule="evenodd" d="M81.4668 19.5546V7.54455L90.5348 0L99.8688 7.54455L95.3549 11.1959V19.5546H81.4668Z" fill="white"/>
<path fill-rule="evenodd" clip-rule="evenodd" d="M118.279 19.5546V7.54455L109.203 0L99.8691 7.54455L104.391 11.1959V19.5546H118.279Z" fill="white"/>
</svg>
