<svg width="404" height="38" viewBox="0 0 404 38" fill="none" xmlns="http://www.w3.org/2000/svg">
<path d="M399.179 21.9834H398.271V23.5526H393.698V24.3372V25.7065H394.607V24.3372H402.844V25.7065H403.752V24.3372V23.5526H399.179V21.9834Z" fill="white"/>
<path d="M389.878 24.6758H387.769V25.5835H389.878V24.6758Z" fill="white"/>
<path d="M385.306 26.4937V36.9552H390.141L391.357 33.8321H391.665V36.9552H392.573V33.0475H390.68L389.463 36.1706H386.199V31.7244H392.558V26.4937H385.291H385.306ZM391.665 30.9244H386.215V29.4936H391.665V30.9244ZM391.665 28.709H386.215V27.2783H391.665V28.709Z" fill="white"/>
<path d="M394.607 26.4937H393.698V36.9552H394.607V36.309H402.382V36.9552H403.29V31.7244H394.607V30.2936H403.29V26.4937H394.607ZM402.382 32.509V35.509H394.607V32.509H402.382ZM402.382 29.4936H394.607V27.2783H402.382V29.4936Z" fill="white"/>
<path d="M391.112 22.9688H390.958H390.142H387.278H386.678H386.293L385.539 24.9226H384.846V25.7072H386.201H386.216L386.97 23.7534H390.45L391.204 25.7072H392.575V24.9226H391.866L391.112 22.9688Z" fill="white"/>
<path d="M370.109 24.4449L371.064 21.9834H370.094L368.385 26.368H367.477V27.1526H369.016L369.047 27.168L369.062 27.1526V27.1372L369.801 25.2296H377.807V36.1526H376.16V36.9526H377.807H378.731V36.1526V25.2296V24.4449H377.807H370.109Z" fill="white"/>
<path d="M367.447 29.968V29.1372L365.261 29.9219V25.2296H367.447V24.4449H365.261V21.9834H364.352V24.4449H362.813L363.367 22.968H362.52L361.135 26.5372H360.734V27.1526H360.904H361.766L362.505 25.2296H364.352V30.2449L361.427 31.3065V32.1526L364.352 31.0911V36.9526H365.261V30.7526L367.447 29.968Z" fill="white"/>
<path d="M370.664 36.9541H372.188L372.234 36.9695V36.9541H372.25V36.9233L376.499 26.0156H375.514L371.572 36.1541H370.664V36.9541Z" fill="white"/>
<path d="M367.63 36.1541H366.722V36.9541H368.246L368.292 36.9695V36.9541H368.307V36.9233L372.557 26.0156H371.571L367.63 36.1541Z" fill="white"/>
<path d="M352.311 30.4927H351.403V31.6311H342.488V32.4158H351.403V36.1542H348.832V36.9542H351.403H352.311V32.4158H355.529V31.6311H352.311V30.4927Z" fill="white"/>
<path d="M353.651 21.9834H352.788L353.389 23.5526H349.463V21.9834H348.554V23.5526H342.488V24.3372H348.554V25.2296H343.751V30.6295H344.659V29.6911H348.554V30.4911H349.463V29.6911H353.343V30.4911H354.251V25.2296H349.463V24.3372H355.529V23.5526H354.251L353.651 21.9834ZM348.554 26.0295V27.0757H344.659V26.0295H348.554ZM344.659 28.9065V27.8603H348.554V28.9065H344.659ZM349.463 28.9065V27.8603H353.343V28.9065H349.463ZM353.343 26.0295V27.0757H349.463V26.0295H353.343Z" fill="white"/>
<path d="M348.832 34.5545L345.014 33.1699V34.0161L348.832 35.4161V34.5545Z" fill="white"/>
<path d="M342.489 27.4295V26.6449H339.81V21.9834H338.902V26.6449H336.639V27.4295H338.902V36.9526H339.81V27.4295H342.489Z" fill="white"/>
<path d="M326.352 21.9834H325.444V22.968H320.687V23.7526H325.444V24.8142H321.302V25.5988H325.444V26.6449H320.687V27.4295H331.11V26.6449H326.352V25.5988H330.509V24.8142H326.352V23.7526H331.11V22.968H326.352V21.9834Z" fill="white"/>
<path d="M318.378 36.1534H317.131V30.6764H319.656V29.8918H317.131V27.5687H319.656V22.9688H313.806V27.5687H316.208V36.1687H314.76V29.9072H313.852V36.1687H312.436V36.9534H318.917L319.872 34.4457H319.01L318.348 36.1534H318.378ZM314.73 23.7534H318.748V26.7688H314.73V23.7534Z" fill="white"/>
<path d="M327.293 35.5849L331.111 36.9695V36.1234L327.293 34.7388V35.5849Z" fill="white"/>
<path d="M320.687 36.9695L324.505 35.5849V34.7388L320.687 36.1234V36.9695Z" fill="white"/>
<path d="M330.295 33.7987V28.1372H321.52V34.4449H330.295V33.7987ZM322.428 28.9372H329.387V29.9834H322.428V28.9372ZM322.428 30.768H329.387V31.8141H322.428V30.768ZM322.428 32.6141H329.387V33.6603H322.428V32.6141Z" fill="white"/>
<path d="M291.882 29.8911V36.9526H292.79V36.3065H302.906V36.9526H303.814V29.8911H298.302V26.0603H307.293V25.2757H298.302V21.9834H297.394V25.2757H288.402V26.0603H297.394V29.8911H291.882ZM302.921 35.5065H292.806V30.6757H302.921V35.5065Z" fill="white"/>
<path d="M271.788 36.9526H273.297H274.205V21.9834H273.297V36.1526H271.788V36.9526Z" fill="white"/>
<path d="M270.358 25.2764H269.373H264.292V26.061H269.08L266.047 33.8302H264.292V34.6148H266.725L270.358 25.2764Z" fill="white"/>
<path d="M283.198 26.061V25.2764H278.117H277.132L280.765 34.6148H283.198V33.8302H281.443L278.425 26.061H283.198Z" fill="white"/>
<path d="M259.087 35.7844L252.652 32.0614V28.7383H251.744V32.0614L245.323 35.7844V36.7075L252.205 32.7229L259.087 36.7075V35.7844Z" fill="white"/>
<path d="M259.087 28.6757L252.652 24.9526V21.9834H251.744V24.9526L245.323 28.6757V29.5988L252.205 25.6142L259.087 29.5988V28.6757Z" fill="white"/>
<path d="M243.136 29.7539L240.38 36.9539H241.227L243.998 29.7539H243.136Z" fill="white"/>
<path d="M244 23.368L240.182 21.9834V22.8449L244 24.2296V23.368Z" fill="white"/>
<path d="M244 27.202L240.182 25.8174V26.6789L244 28.0635V27.202Z" fill="white"/>
<path d="M246.385 23.7236L250.28 24.3697V23.5697L246.385 22.939V23.7236Z" fill="white"/>
<path d="M246.385 30.2617V31.0463L250.28 31.6925V30.9079L246.385 30.2617Z" fill="white"/>
<path d="M254.131 23.5697V24.3697L258.026 23.7236V22.939L254.131 23.5697Z" fill="white"/>
<path d="M254.131 30.6925V31.4771L258.026 31.0463V30.2617L254.131 30.6925Z" fill="white"/>
<path d="M327.894 3.61475H326.925L322.814 14.184H312.514V14.9686H331.405V14.184H323.784L327.894 3.61475Z" fill="white"/>
<path d="M319.641 12.9224H320.611L316.992 3.61475H316.022L319.641 12.9224Z" fill="white"/>
<path d="M322.411 2.35384H330.694V1.56923H322.411V0H321.503V1.56923H313.22V2.35384H321.503H322.411Z" fill="white"/>
<path d="M307.309 3V2.21538H298.318V0H297.394V2.21538H288.402V3H297.394V5.43077H291.158H290.25V11.9077H291.158V6.21539H297.394V14.9538H298.318V6.21539H304.553V11.1077H303.059V11.9077H304.553H305.461V5.43077H304.553H298.318V3H307.309Z" fill="white"/>
<path d="M275.671 0V14.9538H276.579H282.291H283.2V14.1692V12.6769H282.291V14.1692H276.579V6.75385L283.2 2.92308V2.01538L276.579 5.84615V0H275.671Z" fill="white"/>
<path d="M271.236 9.63076L264.292 13.6615V14.5692L271.236 10.5385V14.9538H272.144V5.41538V4.63076V0H271.236V4.63076H264.292V5.41538H271.236V9.63076Z" fill="white"/>
<path d="M244.292 14.8918H245.262V8.55336H249.358V7.75337H245.262V6.10721H249.358V5.32259H246.817V2.96875H245.909V5.32259H243.122V2.96875H242.214V5.32259H240.182V6.10721H244.292V7.75337H240.182V8.55336H244.292V14.8918Z" fill="white"/>
<path d="M241.229 14.9535L243.385 9.38428H242.523L240.367 14.9535H241.229Z" fill="white"/>
<path d="M246.279 9.38428L248.435 14.9535H249.282L247.141 9.38428H246.279Z" fill="white"/>
<path d="M258.18 2.35384L258.488 1.56923L259.088 0H258.118L257.502 1.56923H251.667H250.697V2.35384V12.6154L250.081 14.1846L249.773 14.9692H250.759L251.051 14.1846L251.667 12.6154V6.10769H256.348V14.9538H257.256V6.10769H259.088V5.32308H251.667V2.35384H257.194H258.18Z" fill="white"/>
<path d="M245.232 2.35384H249.358V1.56923H245.232V0H244.323V1.56923H240.182V2.35384H244.323H245.232Z" fill="white"/>
<path d="M43.7721 17.2295H26.5283V37.291H43.7721V17.2295Z" fill="white"/>
<path fill-rule="evenodd" clip-rule="evenodd" d="M70.33 0.552734V17.245H43.7869C43.7869 12.4297 39.907 8.62966 35.165 8.62966C30.4229 8.62966 26.5431 12.4297 26.5431 17.245H0V0.552734H70.3146H70.33Z" fill="white"/>
<path fill-rule="evenodd" clip-rule="evenodd" d="M148.11 0.552734V37.3066H121.567C121.567 34.9835 121.567 32.645 121.567 30.322C121.567 25.5681 117.703 21.7066 112.946 21.7066C108.188 21.7066 104.324 25.5681 104.324 30.322V37.3066H77.7959V0.552734H104.324V8.62966H121.567V0.552734H148.11Z" fill="white"/>
<path fill-rule="evenodd" clip-rule="evenodd" d="M155.595 37.3077V14.3846L172.931 0L190.76 14.3846L182.138 21.3538V37.3077H155.595Z" fill="white"/>
<path fill-rule="evenodd" clip-rule="evenodd" d="M225.925 37.3077V14.3846L208.589 0L190.76 14.3846L199.397 21.3538V37.3077H225.925Z" fill="white"/>
</svg>
