<svg width="260" height="100" viewBox="0 0 260 100" fill="none" xmlns="http://www.w3.org/2000/svg">
<path d="M0.0175781 90.9448H3.50464V99.8562H4.94878V90.9448H8.43584V89.6768H0.0175781V90.9448Z" fill="white"/>
<path d="M14.5449 89.6768L9.93066 99.8562H11.4276L12.5548 97.3025H17.9615L19.0886 99.8562H20.6208L15.989 89.6768H14.5449ZM13.0655 96.1578L15.2669 91.1561L17.4684 96.1578H13.0831H13.0655Z" fill="white"/>
<path d="M33.2125 89.6768L29.021 96.827L24.7767 89.6768H23.5791V99.8562H24.9704V92.477L28.6512 98.6234H29.3204L33.0188 92.4418V99.8562H34.4277L34.4101 89.6768H33.2125Z" fill="white"/>
<path d="M44.6249 94.9623C44.2551 94.751 43.85 94.5925 43.4097 94.4692C42.9695 94.3459 42.5292 94.2226 42.0889 94.1346C41.6486 94.0289 41.2611 93.9232 40.8913 93.7999C40.5215 93.6767 40.2397 93.5006 40.0107 93.2892C39.7818 93.0779 39.6761 92.7961 39.6761 92.4263C39.6761 92.1269 39.7642 91.8627 39.9227 91.6162C40.0988 91.3696 40.363 91.1759 40.7328 91.035C41.1026 90.8941 41.5781 90.8236 42.1417 90.8236C42.5996 90.8236 43.0751 90.8941 43.5506 91.0173C44.0437 91.1406 44.5016 91.352 44.9243 91.6514L45.3998 90.489C44.9772 90.1896 44.4664 89.9783 43.8852 89.8198C43.3041 89.6613 42.7229 89.5908 42.1241 89.5908C41.2259 89.5908 40.5038 89.7317 39.9227 89.9959C39.3415 90.2601 38.9188 90.6123 38.637 91.0526C38.3553 91.4929 38.2144 91.9684 38.2144 92.4967C38.2144 93.0251 38.32 93.483 38.549 93.8352C38.7779 94.1874 39.0597 94.4516 39.4296 94.6629C39.7994 94.8743 40.1868 95.0328 40.6447 95.156C41.085 95.2793 41.5253 95.4026 41.9656 95.4907C42.4059 95.5963 42.7933 95.702 43.1632 95.8253C43.533 95.9486 43.8148 96.1247 44.0437 96.336C44.2727 96.5473 44.3784 96.8291 44.3784 97.1813C44.3784 97.4807 44.2903 97.7449 44.1142 97.9915C43.9381 98.238 43.6739 98.4142 43.3041 98.5551C42.9342 98.6959 42.4587 98.7664 41.8599 98.7664C41.2083 98.7664 40.5919 98.6607 39.9755 98.4318C39.3767 98.2028 38.8836 97.921 38.4961 97.5864L37.9502 98.7136C38.3553 99.0834 38.9188 99.4004 39.6233 99.6293C40.3277 99.8583 41.0674 99.9816 41.8423 99.9816C42.7405 99.9816 43.4802 99.8407 44.0614 99.5765C44.6425 99.3123 45.0828 98.9601 45.3646 98.5198C45.6464 98.0795 45.7873 97.604 45.7873 97.0933C45.7873 96.5826 45.6816 96.1247 45.4527 95.79C45.2237 95.4554 44.9419 95.1736 44.5721 94.9799L44.6249 94.9623Z" fill="white"/>
<path d="M56.5332 95.4005C56.5332 96.5276 56.2866 97.373 55.7759 97.8837C55.2828 98.412 54.5607 98.6762 53.6449 98.6762C52.7291 98.6762 52.0247 98.412 51.5315 97.8837C51.0384 97.3553 50.7743 96.5276 50.7743 95.4005V89.6768H49.3125V95.4709C49.3125 96.9503 49.7 98.0598 50.4572 98.8347C51.2321 99.6096 52.2712 99.9795 53.6097 99.9795C54.9482 99.9795 56.0048 99.592 56.7797 98.8347C57.537 98.0774 57.9245 96.9503 57.9245 95.4709V89.6768H56.5156V95.4005H56.5332Z" fill="white"/>
<path d="M63.8377 89.6768H62.376V99.8562H63.8377V89.6768Z" fill="white"/>
<path d="M81.0118 94.062H75.1648V89.6768H73.7207V99.8562H75.1648V95.33H81.0118V99.8562H82.4736V89.6768H81.0118V94.062Z" fill="white"/>
<path d="M88.4422 89.6768H86.9805V99.8562H88.4422V89.6768Z" fill="white"/>
<path d="M98.6396 94.9623C98.2697 94.751 97.8647 94.5925 97.4244 94.4692C96.9841 94.3459 96.5438 94.2226 96.1035 94.1346C95.6632 94.0289 95.2758 93.9232 94.9059 93.7999C94.5361 93.6767 94.2543 93.5006 94.0254 93.2892C93.7964 93.0779 93.6908 92.7961 93.6908 92.4263C93.6908 92.1269 93.7788 91.8627 93.9373 91.6162C94.1134 91.3696 94.3776 91.1759 94.7474 91.035C95.1173 90.8941 95.5928 90.8236 96.1564 90.8236C96.6143 90.8236 97.0898 90.8941 97.5653 91.0173C98.0584 91.1406 98.5163 91.352 98.939 91.6514L99.4145 90.489C98.9918 90.1896 98.4811 89.9783 97.8999 89.8198C97.3187 89.6613 96.7375 89.5908 96.1387 89.5908C95.2406 89.5908 94.5185 89.7317 93.9373 89.9959C93.3561 90.2601 92.9335 90.6123 92.6517 91.0526C92.3699 91.4929 92.229 91.9684 92.229 92.4967C92.229 93.0251 92.3347 93.483 92.5636 93.8352C92.7926 94.1874 93.0744 94.4516 93.4442 94.6629C93.814 94.8743 94.2015 95.0328 94.6594 95.156C95.0997 95.2793 95.54 95.4026 95.9802 95.4907C96.4205 95.5963 96.808 95.702 97.1778 95.8253C97.5477 95.9486 97.8294 96.1247 98.0584 96.336C98.2873 96.5473 98.393 96.8291 98.393 97.1813C98.393 97.4807 98.305 97.7449 98.1288 97.9915C97.9527 98.238 97.6886 98.4142 97.3187 98.5551C96.9489 98.6959 96.4734 98.7664 95.8746 98.7664C95.223 98.7664 94.6066 98.6607 93.9902 98.4318C93.3914 98.2028 92.8983 97.921 92.5108 97.5864L91.9648 98.7136C92.3699 99.0834 92.9335 99.4004 93.6379 99.6293C94.3424 99.8583 95.0821 99.9816 95.857 99.9816C96.7551 99.9816 97.4948 99.8407 98.076 99.5765C98.6572 99.3123 99.0975 98.9601 99.3793 98.5198C99.661 98.0795 99.8019 97.604 99.8019 97.0933C99.8019 96.5826 99.6963 96.1247 99.4673 95.79C99.2384 95.4554 98.9566 95.1736 98.5867 94.9799L98.6396 94.9623Z" fill="white"/>
<path d="M101.967 90.9448H105.454V99.8562H106.898V90.9448H110.385V89.6768H101.967V90.9448Z" fill="white"/>
<path d="M121.888 91.034C121.395 90.5585 120.831 90.2063 120.179 89.9421C119.528 89.6779 118.806 89.5547 118.031 89.5547C117.256 89.5547 116.516 89.6779 115.865 89.9421C115.213 90.2063 114.632 90.5761 114.156 91.034C113.663 91.5095 113.293 92.0555 113.029 92.6895C112.765 93.3235 112.624 94.0104 112.624 94.7501C112.624 95.4897 112.765 96.1942 113.029 96.8106C113.293 97.4446 113.681 97.9906 114.156 98.4661C114.649 98.9416 115.213 99.2938 115.882 99.558C116.551 99.8221 117.273 99.9454 118.048 99.9454C118.823 99.9454 119.545 99.8221 120.197 99.558C120.849 99.2938 121.43 98.9416 121.905 98.4661C122.398 97.9906 122.768 97.4446 123.032 96.8106C123.297 96.1766 123.437 95.4897 123.437 94.7324C123.437 93.9751 123.297 93.2883 123.032 92.6543C122.768 92.0203 122.398 91.4743 121.905 90.9988L121.888 91.034ZM121.676 96.3351C121.483 96.8106 121.201 97.2333 120.849 97.5855C120.496 97.9377 120.074 98.2195 119.598 98.4132C119.123 98.607 118.594 98.7126 118.013 98.7126C117.432 98.7126 116.921 98.607 116.446 98.4132C115.97 98.2195 115.548 97.9377 115.195 97.5855C114.843 97.2333 114.561 96.8106 114.368 96.3351C114.174 95.8596 114.068 95.3488 114.068 94.7853C114.068 94.2217 114.174 93.711 114.368 93.2355C114.561 92.76 114.843 92.3549 115.195 91.985C115.548 91.6328 115.97 91.351 116.446 91.1573C116.921 90.9636 117.45 90.8579 118.013 90.8579C118.577 90.8579 119.105 90.9636 119.598 91.1573C120.074 91.351 120.496 91.6328 120.849 91.985C121.201 92.3373 121.483 92.76 121.676 93.2355C121.87 93.711 121.976 94.2217 121.976 94.7853C121.976 95.3488 121.87 95.8596 121.676 96.3351Z" fill="white"/>
<path d="M133.35 96.3339C133.984 96.0521 134.459 95.647 134.811 95.1187C135.146 94.5903 135.322 93.9563 135.322 93.2166C135.322 92.477 135.146 91.843 134.811 91.3146C134.477 90.7863 133.984 90.3812 133.35 90.0994C132.716 89.8177 131.958 89.6768 131.06 89.6768H127.098V99.8562H128.559V96.7566H131.078C131.307 96.7566 131.501 96.7213 131.712 96.7037L133.913 99.8562H135.498L133.068 96.4219C133.156 96.3867 133.279 96.3691 133.367 96.3339H133.35ZM131.025 95.5238H128.559V90.9448H131.025C131.958 90.9448 132.663 91.1385 133.138 91.5436C133.614 91.9486 133.86 92.5122 133.86 93.2343C133.86 93.9563 133.614 94.5199 133.138 94.925C132.663 95.33 131.958 95.5238 131.025 95.5238Z" fill="white"/>
<path d="M140.593 89.6768H139.131V99.8562H140.593V89.6768Z" fill="white"/>
<path d="M146.858 91.9693C147.211 91.617 147.633 91.3528 148.126 91.1591C148.62 90.9654 149.148 90.8597 149.711 90.8597C150.275 90.8597 150.786 90.9654 151.261 91.1591C151.754 91.3528 152.177 91.6522 152.565 92.0749L153.516 91.1591C153.058 90.6308 152.476 90.2433 151.825 89.9792C151.156 89.715 150.434 89.5741 149.659 89.5741C148.884 89.5741 148.162 89.6974 147.51 89.9616C146.858 90.2257 146.277 90.5779 145.802 91.0534C145.309 91.529 144.939 92.0749 144.675 92.7089C144.41 93.3429 144.27 94.0298 144.27 94.7871C144.27 95.5444 144.41 96.2312 144.675 96.8652C144.939 97.4992 145.326 98.0452 145.802 98.5207C146.277 98.9962 146.841 99.3484 147.51 99.6126C148.162 99.8768 148.884 100 149.659 100C150.434 100 151.191 99.8592 151.842 99.595C152.512 99.3308 153.075 98.9258 153.533 98.3974L152.582 97.4816C152.195 97.9043 151.754 98.2037 151.279 98.3974C150.786 98.5911 150.275 98.6968 149.729 98.6968C149.183 98.6968 148.62 98.5911 148.144 98.3974C147.651 98.2037 147.228 97.9395 146.876 97.5873C146.524 97.2351 146.242 96.83 146.048 96.3369C145.855 95.8614 145.749 95.333 145.749 94.7695C145.749 94.2059 145.855 93.6776 146.048 93.202C146.242 92.7265 146.524 92.3039 146.876 91.9516L146.858 91.9693Z" fill="white"/>
<path d="M160.138 89.6768L155.523 99.8562H157.02L158.148 97.3025H163.554L164.681 99.8562H166.214L161.582 89.6768H160.138ZM158.658 96.1578L160.86 91.1561L163.061 96.1578H158.676H158.658Z" fill="white"/>
<path d="M170.635 89.6768H169.173V99.8562H176.147V98.5881H170.635V89.6768Z" fill="white"/>
<path d="M194.271 89.6768L190.08 96.827L185.835 89.6768H184.638V99.8562H186.029V92.477L189.71 98.6234H190.379L194.06 92.4418L194.077 99.8562H195.469V89.6768H194.271Z" fill="white"/>
<path d="M207.09 95.4005C207.09 96.5276 206.843 97.373 206.333 97.8837C205.839 98.412 205.117 98.6762 204.202 98.6762C203.286 98.6762 202.581 98.412 202.088 97.8837C201.595 97.3553 201.331 96.5276 201.331 95.4005V89.6768H199.869V95.4709C199.869 96.9503 200.257 98.0598 201.014 98.8347C201.789 99.6096 202.828 99.9795 204.166 99.9795C205.505 99.9795 206.561 99.592 207.336 98.8347C208.094 98.0774 208.481 96.9503 208.481 95.4709V89.6768H207.072V95.4005H207.09Z" fill="white"/>
<path d="M218.644 94.9623C218.275 94.751 217.87 94.5925 217.429 94.4692C216.989 94.3459 216.549 94.2226 216.108 94.1346C215.668 94.0289 215.281 93.9232 214.911 93.7999C214.541 93.6767 214.259 93.5006 214.03 93.2892C213.801 93.0779 213.696 92.7961 213.696 92.4263C213.696 92.1269 213.784 91.8627 213.942 91.6162C214.118 91.3696 214.382 91.1759 214.752 91.035C215.122 90.8941 215.598 90.8236 216.161 90.8236C216.619 90.8236 217.095 90.8941 217.57 91.0173C218.063 91.1406 218.521 91.352 218.944 91.6514L219.419 90.489C218.997 90.1896 218.486 89.9783 217.905 89.8198C217.324 89.6613 216.742 89.5908 216.144 89.5908C215.245 89.5908 214.523 89.7317 213.942 89.9959C213.361 90.2601 212.938 90.6123 212.657 91.0526C212.375 91.4929 212.234 91.9684 212.234 92.4967C212.234 93.0251 212.34 93.483 212.569 93.8352C212.797 94.1874 213.079 94.4516 213.449 94.6629C213.819 94.8743 214.224 95.0328 214.664 95.156C215.105 95.2793 215.545 95.4026 215.985 95.4907C216.425 95.5963 216.813 95.702 217.183 95.8253C217.553 95.9486 217.834 96.1247 218.063 96.336C218.292 96.5473 218.398 96.8291 218.398 97.1813C218.398 97.4807 218.31 97.7449 218.134 97.9915C217.958 98.238 217.693 98.4142 217.324 98.5551C216.954 98.6959 216.478 98.7664 215.879 98.7664C215.228 98.7664 214.611 98.6607 213.995 98.4318C213.396 98.2028 212.903 97.921 212.516 97.5864L211.97 98.7136C212.375 99.0834 212.938 99.4004 213.643 99.6293C214.347 99.8583 215.087 99.9816 215.862 99.9816C216.76 99.9816 217.5 99.8407 218.081 99.5765C218.662 99.3123 219.102 98.9601 219.384 98.5198C219.666 98.0795 219.807 97.604 219.807 97.0933C219.807 96.5826 219.701 96.1247 219.472 95.79C219.243 95.4554 218.961 95.1736 218.592 94.9799L218.644 94.9623Z" fill="white"/>
<path d="M224.896 95.3124H229.986V94.0796H224.896V90.9448H230.62V89.6768H223.435V99.8562H230.831V98.5881H224.896V95.3124Z" fill="white"/>
<path d="M241.748 95.4005C241.748 96.5276 241.501 97.373 240.991 97.8837C240.498 98.412 239.776 98.6762 238.86 98.6762C237.944 98.6762 237.239 98.412 236.746 97.8837C236.253 97.3553 235.989 96.5276 235.989 95.4005V89.6768H234.527V95.4709C234.527 96.9503 234.915 98.0598 235.672 98.8347C236.447 99.6096 237.486 99.9795 238.825 99.9795C240.163 99.9795 241.22 99.592 241.995 98.8347C242.752 98.0774 243.139 96.9503 243.139 95.4709V89.6768H241.73V95.4005H241.748Z" fill="white"/>
<path d="M257.232 89.6768L253.041 96.827L248.796 89.6768H247.599V99.8562H248.99V92.477L252.671 98.6234H253.34L257.021 92.4418L257.038 99.8562H258.43V89.6768H257.232Z" fill="white"/>
<path d="M252.704 56.7452H251.26V59.2461H244.004V60.4965V62.6627H245.448V60.4965H258.533V62.6627H259.977V60.4965V59.2461H252.704V56.7452Z" fill="white"/>
<path d="M237.929 61.0243H234.583V62.4684H237.929V61.0243Z" fill="white"/>
<path d="M240.27 75.5895H240.763V80.556H242.207V74.3391H239.213L237.276 79.3056H232.098V72.2434H242.207V63.9308H230.654V80.5736H238.351L240.288 75.6071L240.27 75.5895ZM232.098 65.1636H240.763V67.4354H232.098V65.1636ZM232.098 68.7035H240.763V70.9754H232.098V68.7035Z" fill="white"/>
<path d="M245.448 63.9141H244.004V80.5569H245.448V79.5178H257.811V80.5569H259.255V72.2267H245.448V69.9548H259.255V63.9141H245.448ZM257.811 73.4771V78.2498H245.448V73.4771H257.811ZM257.811 68.7044H245.448V65.1821H257.811V68.7044Z" fill="white"/>
<path d="M240.042 62.6635H242.208V61.4131H241.098L239.901 58.3135H239.637H238.351H233.79H232.856H232.24L231.042 61.4131H229.933V62.6635H232.099V62.6811V62.6635L233.314 59.5815H238.844L240.042 62.6635V62.6811V62.6635Z" fill="white"/>
<path d="M206.509 60.655L208.041 56.7452H206.474L203.779 63.7193H202.335V64.9698H204.765L204.836 65.005V64.9698H204.853V64.9345L206.033 61.9054H218.766V79.2879H216.125V80.5559H218.766H220.211V79.2879V61.9054V60.655H218.766H206.509Z" fill="white"/>
<path d="M202.265 69.4607V68.1222L198.813 69.3726V61.9054H202.265V60.655H198.813V56.7452H197.369V60.655H194.904L195.802 58.3127H194.446L192.244 64.0011H191.61V64.9698H191.875H193.248L194.411 61.9054H197.369V69.901L192.72 71.5917V72.9301L197.369 71.2394V80.5559H198.813V70.7111L202.265 69.4607Z" fill="white"/>
<path d="M209.91 80.5211L216.655 63.1738H215.105L208.836 79.2883H207.392V80.5563H209.822L209.892 80.5739V80.5563H209.91V80.5211Z" fill="white"/>
<path d="M201.121 80.5563H203.551L203.622 80.5739L203.64 80.5563V80.5211L210.402 63.1738H208.835L202.565 79.2883H201.121V80.5563Z" fill="white"/>
<path d="M158.343 80.5559V65.4101H162.604V64.1596H158.343V56.7452H156.898V64.1596H153.306V65.4101H156.898V80.5559H158.343Z" fill="white"/>
<path d="M178.225 70.2871H176.781V72.0835H162.604V73.3339H176.781V79.2865H172.695V80.5546H176.781H178.225V73.3339H183.332V72.0835H178.225V70.2871Z" fill="white"/>
<path d="M180.337 56.7452H178.981L179.932 59.2461H173.68V56.7452H172.236V59.2461H162.603V60.4965H172.236V61.923H164.61V70.5174H166.054V69.0204H172.236V70.2884H173.68V69.0204H179.844V70.2884H181.288V61.923H173.68V60.4965H183.314V59.2461H181.288L180.337 56.7452ZM172.236 63.1734V64.8465H166.054V63.1734H172.236ZM166.054 67.77V66.0969H172.236V67.77H166.054ZM173.698 67.77V66.0969H179.862V67.77H173.698ZM179.844 63.1734V64.8465H173.68V63.1734H179.844Z" fill="white"/>
<path d="M172.696 76.7335L166.62 74.5321V75.9058L172.696 78.1072V76.7335Z" fill="white"/>
<path d="M124.281 79.2887H122.309V70.571H126.342V69.3206H122.309V65.6222H126.342V58.3135H117.043V65.6222H120.865V79.2887H118.575V69.3206H117.131V79.2887H114.877V80.5391H125.18L126.712 76.5589H125.356L124.299 79.2887H124.281ZM118.487 59.5815H124.88V64.3894H118.487V59.5815Z" fill="white"/>
<path d="M144.535 79.2346L138.459 77.0332V78.3893L144.535 80.5907V79.2346Z" fill="white"/>
<path d="M134.02 77.0332L127.944 79.2346V80.5907L134.02 78.3893V77.0332Z" fill="white"/>
<path d="M144.534 59.5807V58.3127H136.961V56.7452H135.517V58.3127H127.944V59.5807H135.517V61.2362H128.913V62.5042H135.517V64.1596H127.944V65.4101H144.534V64.1596H136.961V62.5042H143.548V61.2362H136.961V59.5807H144.534Z" fill="white"/>
<path d="M143.214 75.5551V66.5557H129.266V76.5766H143.214V75.5551ZM130.71 67.8061H141.77V69.4792H130.71V67.8061ZM130.71 70.7296H141.77V72.4027H130.71V70.7296ZM130.71 73.6531H141.77V75.3262H130.71V73.6531Z" fill="white"/>
<path d="M92.3891 63.2437H106.69V61.9933H92.3891V56.7627H90.945V61.9933H76.6445V63.2437H90.945V69.3373H82.1745V80.5557H83.6187V79.5167H99.7155V80.5557H101.16V69.3373H92.3891V63.2437ZM99.7155 78.2663H83.6187V70.5877H99.7155V78.2663Z" fill="white"/>
<path d="M46.4059 61.9943H38.3223V63.2447H45.9128L41.1049 75.5903H38.3223V76.8583H42.1792L47.9557 61.9943H46.4059Z" fill="white"/>
<path d="M50.2441 80.5559H52.6217H54.0658V56.7452H52.6217V79.2879H50.2441V80.5559Z" fill="white"/>
<path d="M60.2832 61.9943H58.7334L64.5099 76.8583H68.3668V75.5903H65.5842L60.7763 63.2447H68.3668V61.9943H60.2832Z" fill="white"/>
<path d="M19.1066 73.8277L30.0433 80.1678V78.706L19.8111 72.771V67.4875H18.367V72.7886L8.15234 78.706V80.1678L19.089 73.8277H19.1066Z" fill="white"/>
<path d="M30.0433 67.4002L19.8111 61.4651V56.7452H18.367V61.4827L8.15234 67.4002V68.8619L19.089 62.5218H19.1066L30.0433 68.8619V67.4002Z" fill="white"/>
<path d="M1.65198 80.5551L6.05483 69.1077H4.69875L0.295898 80.5551H1.65198Z" fill="white"/>
<path d="M0 58.1189L6.07594 60.3204V58.9467L0 56.7452V58.1189Z" fill="white"/>
<path d="M6.07594 65.0402L0 62.8387V64.1948L6.07594 66.4139V65.0402Z" fill="white"/>
<path d="M9.84473 58.2587V59.5091L16.0439 60.5305V59.2801L9.84473 58.2587Z" fill="white"/>
<path d="M9.84473 69.9189V71.1694L16.0439 72.1908V70.9404L9.84473 69.9189Z" fill="white"/>
<path d="M28.3516 58.2587L22.1523 59.2801V60.5305L28.3516 59.5091V58.2587Z" fill="white"/>
<path d="M22.1523 70.5882V71.8562L28.3516 71.1694V69.9189L22.1523 70.5882Z" fill="white"/>
<path d="M50.049 19.7266H30.3242V42.6919H50.049V19.7266Z" fill="white"/>
<path fill-rule="evenodd" clip-rule="evenodd" d="M80.4314 0.636719V19.7451H50.0693C50.0693 14.2327 45.6312 9.88272 40.2069 9.88272C34.7826 9.88272 30.3445 14.2327 30.3445 19.7451H0V0.636719H80.4314Z" fill="white"/>
<path fill-rule="evenodd" clip-rule="evenodd" d="M169.421 0.636719V42.7104H139.059C139.059 40.0511 139.059 37.3742 139.059 34.7148C139.059 29.2729 134.638 24.8524 129.196 24.8524C123.754 24.8524 119.334 29.2729 119.334 34.7148V42.7104H88.9893V0.636719H119.334V9.88272H139.059V0.636719H169.421Z" fill="white"/>
<path fill-rule="evenodd" clip-rule="evenodd" d="M177.979 42.7077V16.4843L197.809 0L218.185 16.4843L208.323 24.4623V42.7077H177.979Z" fill="white"/>
<path fill-rule="evenodd" clip-rule="evenodd" d="M258.41 42.7077V16.4843L238.58 0L218.186 16.4843L228.066 24.4623V42.7077H258.41Z" fill="white"/>
</svg>
